[IMG]http://img705.imageshack.us/img705/7682/jedgar.jpg[/IMG]


[color=blue][size=5][b]J.Edgar.2011.BDRip.XVID.AC3.HQ.Hive-CM8[/b][/size][/color]


[b] Thx Hive

CM8 Doing It Right The First Time :D


Source: Bluray

Encode:
Another great Movie and the producer decided to make the movie dark and colourless.
Did not like it, so i fixed brightness, contrast, chroma, rgb and denoise.
Looks now like it should be in the first place.

Here's a comparison of before and after: 
http://screenshotcomparison.com/comparison/107573

Video: 720x304 @bitrate 1500 2pass
Audio: English DTS to AC3 5.1 @384
Subs: Yes, English in srt /subs
Sample: Yes, included[/b]

 
http://www.imdb.com/title/tt1616195/


General
Complete name                  : J.Edgar.2011.BDRip.XVID.AC3.HQ.Hive-CM8.avi
Format                         : AVI
Format/Info                    : Audio Video Interleave
File size                      : 1.81 GiB
Duration                       : 2h 16mn
Overall bit rate               : 1 893 Kbps
Writing application            : Nandub v1.0rc2
Writing library                : Nandub build 1853/release

Video
ID                             : 0
Format                         : MPEG-4 Visual
Format profile                 : Advanced Simple@L5
Format settings, BVOP          : 2
Format settings, QPel          : Yes
Format settings, GMC           : No warppoints
Format settings, Matrix        : Default (H.263)
Muxing mode                    : Packed bitstream
Codec ID                       : XVID
Codec ID/Hint                  : XviD
Duration                       : 2h 16mn
Bit rate                       : 1 500 Kbps
Width                          : 720 pixels
Height                         : 304 pixels
Display aspect ratio           : 2.35:1
Frame rate                     : 23.976 fps
Color space                    : YUV
Chroma subsampling             : 4:2:0
Bit depth                      : 8 bits
Scan type                      : Progressive
Compression mode               : Lossy
Bits/(Pixel*Frame)             : 0.286
Stream size                    : 1.43 GiB (79%)
Writing library                : XviD 1.2.1 (UTC 2008-12-04)

Audio
ID                             : 1
Format                         : AC-3
Format/Info                    : Audio Coding 3
Mode extension                 : CM (complete main)
Codec ID                       : 2000
Duration                       : 2h 16mn
Bit rate mode                  : Constant
Bit rate                       : 384 Kbps
Channel(s)                     : 6 channels
Channel positions              : Front: L C R, Side: L R, LFE
Sampling rate                  : 48.0 KHz
Bit depth                      : 16 bits
Compression mode               : Lossy
Stream size                    : 376 MiB (20%)
Alignment                      : Split accross interleaves
Interleave, duration           : 42 ms (1.00 video frame)
Interleave, preload duration   : 500 ms


Plot:
As the face of law enforcement in America for almost 50 years,
J. Edgar Hoover was feared and admired, reviled and revered.
But behind closed doors, he held secrets that would have
destroyed his image, his career and his life.


Cast:
Leonardo DiCaprio   ...    J. Edgar Hoover
Armie Hammer        ...    Clyde Tolson
Naomi Watts         ...    Helen Gandy
Judi Dench          ...    Anna Marie Hoover


[img]http://img220.imageshack.us/img220/1849/ededu.png[/img]
[img]http://img17.imageshack.us/img17/909/edededv.png[/img]
[img]http://img96.imageshack.us/img96/7049/edededed.png[/img]
[img]http://img38.imageshack.us/img38/16/ededeedded.png[/img]
[img]http://img811.imageshack.us/img811/463/56902351.png[/img]
[img]http://img837.imageshack.us/img837/8337/ededeededded.png[/img]
[img]http://img820.imageshack.us/img820/7384/ededeedededded.png[/img]
[img]http://img221.imageshack.us/img221/857/ededeedeeddedded.png[/img]
[img]http://img41.imageshack.us/img41/7051/ededeedeeedddedded.png[/img]




Greetz

ViSiON,SPK,SceneLovers,PRESTiGE,SANTi,3LT0N,YanKeeS,COPYxRIGHT,THC,T0XiC
D2U,LKRG,Feel-Free,FLAWL3SS,WBZ,BHRG,26K,NOVA,SeToNeUp,TED,MAGNET,jtr
Unevano,Rapeseed,SAFC,goldadvance,KaN1vE,Pinnz,Wayne
Mr Hive,and most P2P groups
Great Work Guys :D

LOOKING FOR ANYTHING YOU WANT TO LOOK AND SOUND BETTER

CM8@hushmail.com